PathFileType	4	(X/Y/Z)	F:/Ayumi_testdata/Ayumi_25_09_2024/new_static/static_00.trc																																																																																																																																																																																																				
DataRate	CameraRate	NumFrames	NumMarkers	Units	OrigDataRate	OrigDataStartFrame	OrigNumFrames																																																																																																																																																																																																
200	200	4	66	mm	200	74	295																																																																																																																																																																																																
Frame#	Time	LASI			RASI			RSACR			LSACR			USACR			LBAR			RBAR			RHEE			RMT1			RMT5			RMT2			LHEE			LMT1			LMT5			LMT2			LMMAL			LMFC			LLFC			LLMAL			LTIB4			LTIB2			LTIB3			LTIB1			RMMAL			RMFC			RLFC			RLMAL			RTIB1			RTIB2			RTIB3			RTHI1			RTHI4			RTHI3			RTHI2			LTHI1			LTHI4			LTHI3			LTHI2			FHD			LBHD			RBHD			C7			T10			CLAV			LSHO			RSHO			LRAD			LUL			LRFIN			RRAD			RUL			RUFIN			RLEP			RMEP			LLEP			LMEP			LDUPA			LMUPA			LUUPA			RDUPA			RUUPA			RMUPA			LKJC			RKJC			LAJC			RAJC		
		X1	Y1	Z1	X2	Y2	Z2	X3	Y3	Z3	X4	Y4	Z4	X5	Y5	Z5	X6	Y6	Z6	X7	Y7	Z7	X8	Y8	Z8	X9	Y9	Z9	X10	Y10	Z10	X11	Y11	Z11	X12	Y12	Z12	X13	Y13	Z13	X14	Y14	Z14	X15	Y15	Z15	X16	Y16	Z16	X17	Y17	Z17	X18	Y18	Z18	X19	Y19	Z19	X20	Y20	Z20	X21	Y21	Z21	X22	Y22	Z22	X23	Y23	Z23	X24	Y24	Z24	X25	Y25	Z25	X26	Y26	Z26	X27	Y27	Z27	X28	Y28	Z28	X29	Y29	Z29	X30	Y30	Z30	X31	Y31	Z31	X32	Y32	Z32	X33	Y33	Z33	X34	Y34	Z34	X35	Y35	Z35	X36	Y36	Z36	X37	Y37	Z37	X38	Y38	Z38	X39	Y39	Z39	X40	Y40	Z40	X41	Y41	Z41	X42	Y42	Z42	X43	Y43	Z43	X44	Y44	Z44	X45	Y45	Z45	X46	Y46	Z46	X47	Y47	Z47	X48	Y48	Z48	X49	Y49	Z49	X50	Y50	Z50	X51	Y51	Z51	X52	Y52	Z52	X53	Y53	Z53	X54	Y54	Z54	X55	Y55	Z55	X56	Y56	Z56	X57	Y57	Z57	X58	Y58	Z58	X59	Y59	Z59	X60	Y60	Z60	X61	Y61	Z61	X62	Y62	Z62	X63	Y63	Z63	X64	Y64	Z64	X65	Y65	Z65	X66	Y66	Z66
																																																																																																																																																																																																							
74	0.365	133.6325531	762.5397949	918.0341797	129.3828583	984.8875122	918.6575317	309.1166382	912.626709	950.416626	308.2860107	852.7001343	953.6271973	297.3908081	882.5786743	966.7588501	1270.813354	-346.4985962	26.29666328	1226.434814	1876.978394	26.27075958	323.0513306	1019.655518	39.83378983	128.1481781	1043.326416	43.45639038	165.0750122	1113.679932	34.82155991	140.1792297	1079.984863	42.67977142	326.2627869	745.1577148	45.84429932	134.3877106	736.4593506	46.34426117	169.9572754	662.7965088	33.44781876	143.1634674	698.0418091	45.93413162	276.6903992	778.6808472	72.95648956	232.9733887	829.2644043	456.9010315	219.4091492	721.6020508	454.0180969	278.8018799	700.9963989	69.16550446	290.3156128	691.5735474	209.668045	313.9551697	691.5626221	271.014679	263.5195923	684.6494751	268.2142029	301.571167	687.3416138	314.3471375	275.1647949	994.1053467	68.38320923	235.3520966	935.5515747	446.6114502	220.6719666	1041.449829	461.3806458	284.6739807	1068.60437	72.25913239	257.1673584	1082.838501	319.3345337	307.615509	1077.279785	314.038208	276.6463318	1081.428467	256.1992188	241.8554993	1060.246704	784.0014648	243.0095825	1064.706543	635.2745972	191.5407715	1066.844971	637.1190796	219.3423767	1070.311035	697.1304321	238.5427399	699.0667725	778.9831543	236.4164124	694.9171143	646.5281982	185.8495636	693.6519165	637.4915161	200.2921295	689.6086426	701.2376709	129.8934174	775.1066895	1592.942871	240.6488037	786.0647583	1575.96582	252.2601013	909.5571289	1571.543579	262.4762268	857.6657104	1391.419556	285.3814392	877.6919556	1007.692017	139.9089966	872.723877	1328.518677	243.7923126	724.7432861	1380.886475	236.071991	986.6740723	1397.05481	163.9434509	222.4967041	1357.762817	204.5524597	222.0979156	1353.265991	150.5023956	130.6010284	1337.120728	240.591568	1500.50293	1389.54248	287.4808044	1499.626953	1383.424683	234.8597565	1590.649536	1391.775391	292.8806458	1271.181641	1330.1698	254.617157	1271.71582	1296.579468	219.9871063	453.8624878	1299.999756	179.1715393	466.6607666	1277.562988	236.1123199	505.813385	1353.760376	200.2307739	536.3512573	1371.344238	237.2516022	584.9922485	1362.257935	265.7884216	1205.625	1382.549194	256.4961243	1143.911743	1384.281128	215.6156464	1212.132446	1385.538818	226.1912689	775.4332275	455.4595642	228.0120239	988.5007324	453.9960327	277.7461548	739.838623	71.06099701	279.9193726	1031.354858	70.32116699
75	0.37	133.6006165	762.5322266	918.0233154	129.3599854	984.8935547	918.6571655	309.0918274	912.6177368	950.4139404	308.24823	852.7061157	953.6271973	297.3586731	882.5765991	966.7628784	1270.825195	-346.5167847	26.30843544	1226.435791	1876.97522	26.27339554	323.0526123	1019.657349	39.82557678	128.1480255	1043.334473	43.44668579	165.0704803	1113.677734	34.82123184	140.1780243	1079.981445	42.67474365	326.2626953	745.1641235	45.84707642	134.3794556	736.4564819	46.33961105	169.9551086	662.7944336	33.46511459	143.1672821	698.0462036	45.92389679	276.6924438	778.6817627	72.96094513	232.9454193	829.2677612	456.9006958	219.3889008	721.6016235	454.0122681	278.7917175	700.9884644	69.16189575	290.2989502	691.5764771	209.6670685	313.9845886	691.2359009	271.361908	263.5159302	684.6539307	268.2310486	301.577179	687.3215942	314.3683167	275.1642151	994.1155396	68.38050842	235.3299866	935.5511475	446.6065063	220.6489563	1041.456177	461.3803406	284.6634521	1068.607178	72.25535583	257.1482849	1082.849976	319.3388672	307.605011	1077.278442	314.0574951	276.6256409	1081.433594	256.1979675	241.8404999	1060.247681	783.9968872	243.0358734	1064.852539	635.4082031	191.5153961	1066.857544	637.1204224	219.311203	1070.313843	697.112915	238.5226898	699.065918	778.9740601	236.46521	695.4903564	646.5792847	185.8233795	693.68927	637.4824219	200.240036	689.6086426	701.2172852	129.8871307	775.1123047	1592.944702	240.6500092	786.0497437	1575.955811	252.2724609	909.5394287	1571.542969	262.481842	857.6766968	1391.414307	285.3519592	877.6925659	1007.682373	139.9101715	872.7271729	1328.524658	243.7979736	724.7543335	1380.906494	236.0775452	986.6807861	1397.05127	163.9551086	222.4967499	1357.746948	204.5671844	222.104126	1353.247314	150.513916	130.6116943	1337.096558	240.6245117	1500.506714	1389.504272	287.5017395	1499.636353	1383.395142	234.8834991	1590.660645	1391.730469	292.8858032	1271.174805	1330.157715	254.6172791	1271.71228	1296.567383	219.9801636	453.8782349	1299.99585	179.1736298	466.6625977	1277.557373	236.1248627	505.8125	1353.771851	200.2226105	536.3756104	1371.35083	237.3106384	584.979248	1362.406616	265.7954712	1205.604126	1382.578247	256.4963074	1143.911011	1384.267944	215.6182861	1212.137329	1385.533447	226.16716	775.4346924	455.4564819	227.9894714	988.5036621	453.9934082	277.7420654	739.835083	71.06141663	279.9138184	1031.361328	70.31793213
76	0.375	133.578537	762.5369263	918.0209961	129.3288116	984.8886108	918.6575928	309.0627441	912.6137085	950.4155273	308.2312622	852.6893311	953.614563	297.3259888	882.5731201	966.760376	1270.809814	-346.4878235	26.28064346	1226.43042	1876.972168	26.27536011	323.0538635	1019.663086	39.83163071	128.1450348	1043.33252	43.44975281	165.0620728	1113.687744	34.82522202	140.1819763	1079.983521	42.67832184	326.26474	745.1707764	45.84573746	134.382019	736.4596558	46.34050751	169.9554596	662.7921753	33.45697021	143.167923	698.0505371	45.93032837	276.6908569	778.6810303	72.96250153	232.9537659	829.2590942	456.8871765	219.3763885	721.6086426	454.0094299	278.8028259	700.9907227	69.16329193	290.2872925	691.5769043	209.6713562	313.9787598	691.2396851	271.3718872	263.4876404	684.6536865	268.2272034	301.5641785	687.328064	314.3754883	275.1576538	994.1135864	68.3769455	235.3072968	935.5541992	446.6131592	220.6268005	1041.453003	461.379303	284.6726379	1068.608765	72.2540741	257.1364136	1082.855469	319.3279419	307.5810547	1077.283691	314.0492554	276.6086121	1081.438965	256.2026672	241.7874146	1060.247559	783.9909058	242.9546356	1064.68811	635.2608643	191.4931946	1066.864502	637.1074219	219.3187103	1070.303467	697.114502	238.4901886	699.0708618	778.9742432	236.5024261	694.7628784	646.8098145	185.8007813	693.6983032	637.4819946	200.2332306	689.6062622	701.2138062	129.876297	775.1115112	1592.942993	240.6578369	786.034668	1575.952881	252.2888947	909.534668	1571.537476	262.5106812	857.6613159	1391.396362	285.3263245	877.6845703	1007.674683	139.9271851	872.7362061	1328.528076	243.8124542	724.7492065	1380.90271	236.0726318	986.6858521	1397.044678	163.9788513	222.5027313	1357.731079	204.5670776	222.1038361	1353.220825	150.5251617	130.6060028	1337.063965	240.6508484	1500.515015	1389.461182	287.5340576	1499.617798	1383.341553	234.931076	1590.678345	1391.67041	292.8869019	1271.174927	1330.136841	254.6081543	1271.716309	1296.549927	219.9978333	453.8814392	1299.990112	179.180603	466.67453	1277.547729	236.1394653	505.8228455	1353.753662	200.2363129	536.3632202	1371.346191	237.3521271	584.9542847	1362.432373	265.801178	1205.615723	1382.523926	256.4879456	1143.91748	1384.255005	215.6285248	1212.142822	1385.513916	226.1650696	775.4338379	455.4483032	227.967041	988.5036011	453.9962158	277.7468262	739.8358765	71.06289673	279.9151611	1031.361206	70.31550598
77	0.38	133.5457001	762.5305176	918.0184937	129.2997131	984.8961792	918.6575317	309.032196	912.6202393	950.4094238	308.1970825	852.6988525	953.6210327	297.297821	882.5681152	966.7526245	1270.844482	-346.4682007	26.31373215	1226.426514	1876.9552	26.2658596	323.0480957	1019.661621	39.83209229	128.1378021	1043.338745	43.45761108	165.0632935	1113.688599	34.82217026	140.1751556	1079.984863	42.68034363	326.2513733	745.1771851	45.83938217	134.3781738	736.4629517	46.3399353	169.9574585	662.8039551	33.45063019	143.1656036	698.0476074	45.92648697	276.698822	778.680603	72.96122742	232.9094086	829.260437	456.8855591	219.362793	721.6110229	454.0126648	278.7912292	700.9945679	69.15352631	290.2892151	691.5843506	209.6695557	313.8748169	691.3990479	271.2658997	263.4891357	684.6560669	268.2216187	301.5099487	687.3548584	314.3745728	275.159668	994.1177979	68.38124084	235.2836609	935.5531006	446.6097717	220.6195221	1041.45166	461.3759155	284.6730652	1068.613525	72.26040649	257.1271667	1082.858032	319.3285217	307.5676575	1077.285156	314.0550537	276.5942383	1081.432007	256.1981812	241.776535	1060.250854	783.9975586	242.9835205	1064.841797	635.4222412	191.4732208	1066.885986	637.1205444	219.2957764	1070.29248	697.0874023	238.4407806	699.0684204	778.9707642	236.442215	695.3918457	646.5657349	185.7916107	693.6908569	637.4741821	200.2058716	689.6239624	701.1889648	129.8748627	775.1193848	1592.947876	240.6464386	786.0272827	1575.974854	252.3092499	909.5178223	1571.540283	262.5090332	857.6627197	1391.386841	285.2980042	877.6831665	1007.670776	139.9398651	872.7304688	1328.52417	243.798233	724.7600708	1380.87146	236.0798492	986.6934814	1397.040161	163.9950256	222.5041809	1357.71106	204.571106	222.1166992	1353.203613	150.5366364	130.6143188	1337.025879	240.6737671	1500.523926	1389.420532	287.5630188	1499.623291	1383.31543	234.9445953	1590.687866	1391.61499	292.8898621	1271.168213	1330.123901	254.6461029	1271.696777	1296.532593	219.9957733	453.8999023	1299.982544	179.1883392	466.6828308	1277.55188	236.1423798	505.8232422	1353.750488	200.2565308	536.3710938	1371.335327	237.3418121	584.9924316	1362.230591	265.8037415	1205.608643	1382.546143	256.4951477	1143.916748	1384.249634	215.6274719	1212.148682	1385.505981	226.1361084	775.43573	455.4490967	227.9515991	988.5023804	453.9928589	277.7450256	739.8375854	71.05737305	279.9163818	1031.365723	70.32082367
